<svg version="1.1" xmlns="http://www.w3.org/2000/svg" viewBox="-375.80800170898436 -3655.6800292968746 5571.58408203125 4249.599999999999"><desc>Created with Snap</desc><defs></defs><g><rect x="-375.80800170898436" y="-3655.6800292968746" width="5571.58408203125" height="4249.599999999999" fill="#421e86" style=""></rect><g transform="matrix(25.6285,0,0,25.6285,1128.5603,-3476.6224)"><g><path d="M78.4,66.5c-5.5,4.8-9.9,15.2-9.9,15.2s-6.9-11.4-12.9-15.3c-9.5-6.1-13.6-6.2-13.6-6.2V65c0,0,7.8,1.2,11.7,4.6   c8.2,7.1,14.8,18.5,14.8,18.5S74.4,75,80.1,70.5C88.1,64.3,95,65,95,65v-4.8C95,60.1,85.1,60.7,78.4,66.5z" fill="#ffffff" style=""></path><path d="M42,80c-6.4-3.6-17.8-4.3-17.8-4.3s8.7-10.1,10.5-17C37.5,47.9,36.2,44,36.2,44l-4.6,1.6c0,0,1.3,7.7-0.6,12.4   c-4.1,9.9-13,19.8-13,19.8s14.6,1.3,20.7,5.1c8.6,5.4,10.2,12,10.2,12l4.6-1.6C53.5,93.4,49.7,84.4,42,80z" fill="#ffffff" style=""></path><path d="M35.3,36.8c11.3-0.9,14.6-3.4,14.6-3.4l-3-3.8c0,0-6.9,3.7-12.1,3.4c-10.9-0.6-23.3-5.6-23.3-5.6s3.5,14,1.8,20.9   C10.9,58.2,5,61.8,5,61.8l3,3.8c0,0,7.5-6.5,9.1-15.1c1.3-7.1-1.7-18-1.7-18S28,37.4,35.3,36.8z" fill="#ffffff" style=""></path><path d="M37.4,17.8c7.3-1.1,16.7-7.4,16.7-7.4s-0.6,13.2,2.4,19.8c4.6,10.2,8,12.5,8,12.5l2.7-4c0,0-5.9-5.2-7.3-10.2   C56.9,18.2,57.7,5,57.7,5s-12.3,7.8-19.5,8.5c-10.2,1-15.6-3.3-15.6-3.3l-2.7,4.1C19.9,14.2,28.6,19.1,37.4,17.8z" fill="#ffffff" style=""></path><path d="M65,60.5c0,0,3.1-7.2,7.4-10.1c9-6.1,21.9-9.7,21.9-9.7s-11.5-8.9-14.5-15.4c-4.2-9.1-1.9-15.6-1.9-15.6l-4.8-1.2   c0,0-1.9,9.6,2.2,17.4c3.4,6.4,12.5,13.2,12.5,13.2S75,42.9,69.6,47.8c-8.3,7.6-9.4,11.5-9.4,11.5L65,60.5z" fill="#ffffff" style=""></path></g><desc>Created with Snap</desc><defs></defs></g><g><g transform="matrix(1.024,0,0,-1.024,0,0)"><path d="M424 -87Q387 -87 342 -72Q297 -57 249 -36Q201 -15 156 5Q131 -23 102 -38Q74 -53 41 -53Q7 -53 -18 -38Q-42 -22 -55 -1Q-67 21 -67 38Q-67 57 -50 71Q-32 86 12 86Q38 86 70 80Q103 75 137 66Q160 106 180 161Q200 216 219 276Q238 337 258 396Q209 412 182 442Q155 472 155 504Q155 524 164 543Q174 562 191 575Q208 588 232 588Q221 574 217 554Q214 535 214 522Q214 487 229 463Q245 440 268 426Q287 484 308 537Q330 590 356 631Q383 672 415 696Q447 720 487 720Q509 720 533 710Q558 701 575 678Q593 656 593 614Q593 580 579 541Q565 502 534 466Q504 431 456 407Q409 384 343 383Q341 383 338 383Q336 383 331 383Q311 324 289 263Q268 203 244 148Q220 93 191 51Q233 39 280 24Q327 10 373 0Q420 -9 456 -9Q479 -9 498 -4Q518 1 539 11Q520 -41 491 -64Q463 -87 424 -87ZM33 -19Q58 -19 75 -7Q92 5 108 23Q77 35 49 43Q22 51 0 51Q-19 51 -27 44Q-35 38 -35 28Q-35 12 -15 -4Q5 -19 33 -19ZM340 411Q384 413 419 438Q454 463 478 499Q503 536 516 573Q529 611 529 639Q529 666 518 676Q508 686 495 686Q465 686 438 648Q412 610 388 547Q365 485 340 411ZM673 -30Q639 -30 617 1Q596 32 596 73Q596 101 605 139Q615 177 629 213Q643 250 658 274Q674 298 686 298Q693 298 706 291Q720 284 730 274Q719 258 703 224Q688 190 676 151Q664 113 664 81Q664 76 665 60Q667 45 673 32Q680 19 696 19Q713 19 733 37Q753 56 773 86Q794 116 813 151Q832 186 848 218Q864 250 874 272Q882 271 895 267Q909 264 919 258Q930 252 930 241Q930 238 920 216Q911 194 898 163Q885 132 875 100Q866 68 866 44Q866 29 872 18Q878 7 895 7Q916 7 945 26Q975 45 1006 81Q1037 118 1061 168L1075 157Q1053 103 1018 60Q984 18 944 -6Q905 -30 868 -30Q840 -30 825 -18Q810 -5 804 15Q799 35 799 56Q799 63 799 71Q800 79 801 86Q784 57 763 30Q743 4 720 -13Q698 -30 673 -30ZM1148 -56Q1097 -56 1064 -24Q1031 9 1031 75Q1031 124 1050 171Q1070 218 1102 256Q1134 294 1173 316Q1212 338 1252 338Q1294 338 1311 316Q1329 294 1329 267Q1329 238 1315 213Q1302 188 1279 188Q1260 188 1248 206Q1260 213 1271 234Q1282 255 1282 282Q1282 292 1278 297Q1274 302 1262 302Q1236 302 1208 279Q1181 256 1157 219Q1133 183 1118 143Q1103 103 1103 68Q1103 39 1118 15Q1133 -9 1175 -9Q1214 -9 1254 13Q1295 35 1331 75Q1367 115 1388 170L1406 154Q1382 94 1340 46Q1299 -1 1248 -29Q1198 -56 1148 -56ZM1413 -280Q1388 -280 1367 -265Q1347 -250 1347 -219Q1347 -187 1365 -162Q1383 -136 1412 -115Q1441 -94 1475 -76Q1510 -58 1544 -41Q1556 -10 1570 35Q1584 80 1595 124Q1564 78 1528 43Q1493 9 1450 9Q1432 9 1412 16Q1393 24 1380 42Q1367 61 1367 91Q1367 118 1376 155Q1386 192 1400 227Q1415 262 1430 285Q1446 309 1458 309Q1463 309 1474 305Q1485 301 1495 294Q1506 287 1508 279Q1499 267 1488 244Q1477 221 1467 193Q1457 165 1450 138Q1444 111 1444 92Q1444 76 1450 65Q1457 54 1475 54Q1496 54 1519 72Q1543 90 1566 118Q1589 147 1607 177Q1610 186 1612 199Q1614 213 1618 228Q1622 244 1634 259Q1647 275 1670 275Q1677 275 1683 274Q1690 273 1699 271Q1699 256 1688 212Q1678 169 1661 111Q1644 54 1622 -4Q1666 13 1711 53Q1756 94 1784 165L1800 153Q1785 103 1754 66Q1724 30 1686 4Q1648 -21 1610 -38Q1583 -103 1552 -159Q1521 -214 1486 -247Q1452 -280 1413 -280ZM1405 -245Q1423 -245 1457 -205Q1492 -165 1528 -79Q1493 -97 1460 -119Q1427 -140 1405 -164Q1383 -188 1383 -216Q1383 -225 1388 -235Q1393 -245 1405 -245ZM2222 -87Q2160 -87 2113 -62Q2066 -36 2040 6Q2015 48 2015 99Q2015 144 2034 187Q2054 230 2089 266Q2124 302 2170 326Q2217 350 2272 357Q2235 389 2216 429Q2198 469 2198 511Q2198 564 2225 611Q2252 659 2300 689Q2349 719 2412 719Q2471 719 2502 690Q2534 661 2534 606Q2534 568 2520 532Q2507 497 2488 475Q2469 453 2450 453Q2437 453 2425 464Q2414 476 2406 491Q2442 522 2467 556Q2493 590 2493 627Q2493 657 2473 673Q2454 689 2421 689Q2376 689 2345 661Q2314 634 2298 590Q2282 547 2282 499Q2282 458 2296 415Q2311 372 2351 341Q2280 330 2228 291Q2177 252 2148 200Q2120 148 2120 97Q2120 66 2132 32Q2145 -1 2173 -24Q2201 -46 2249 -46Q2303 -46 2356 -16Q2409 15 2453 64Q2498 114 2524 171L2547 156Q2511 87 2462 32Q2413 -23 2353 -55Q2293 -87 2222 -87ZM2876 -20Q2839 -20 2819 -1Q2800 18 2800 47Q2800 68 2807 90Q2814 113 2821 136Q2828 160 2828 182Q2828 206 2817 215Q2806 224 2791 224Q2761 224 2729 199Q2698 174 2668 136Q2638 99 2612 58Q2586 17 2567 -15Q2549 -15 2533 -9Q2517 -3 2506 12Q2507 17 2517 42Q2528 68 2541 104Q2554 141 2564 180Q2575 219 2575 252Q2582 259 2596 267Q2610 275 2625 275Q2657 275 2657 246Q2657 233 2651 204Q2645 176 2635 143Q2662 180 2693 214Q2725 248 2760 270Q2795 292 2831 292Q2872 292 2891 263Q2911 235 2911 200Q2911 170 2901 143Q2891 117 2881 93Q2872 70 2872 47Q2872 30 2879 22Q2887 15 2898 15Q2922 15 2947 38Q2973 62 2996 97Q3020 133 3038 169L3053 156Q3032 107 3006 67Q2980 27 2948 3Q2916 -20 2876 -20ZM3061 -280Q3037 -280 3016 -266Q2996 -251 2996 -218Q2996 -187 3014 -162Q3033 -136 3063 -115Q3093 -93 3128 -75Q3163 -57 3195 -41Q3207 -11 3218 23Q3229 57 3239 98Q3203 50 3163 18Q3124 -13 3083 -13Q3045 -13 3022 14Q3000 42 3000 87Q3000 140 3026 186Q3053 233 3094 269Q3136 306 3183 326Q3231 347 3273 347Q3304 347 3319 336Q3334 325 3334 311Q3334 300 3327 293Q3321 287 3319 286Q3311 296 3300 299Q3290 303 3276 303Q3237 303 3201 281Q3165 259 3137 224Q3109 189 3093 151Q3077 114 3077 83Q3077 62 3086 50Q3095 39 3109 39Q3138 39 3178 76Q3218 114 3255 167Q3258 177 3259 185Q3261 193 3263 202Q3271 234 3284 252Q3297 271 3322 271Q3327 271 3334 270Q3341 270 3349 268Q3349 250 3339 208Q3329 167 3312 112Q3295 57 3273 -1Q3305 13 3336 37Q3368 61 3395 94Q3422 127 3436 167L3452 152Q3437 106 3403 68Q3370 31 3331 3Q3293 -24 3261 -39Q3233 -105 3202 -160Q3171 -215 3136 -248Q3101 -280 3061 -280ZM3057 -239Q3076 -239 3108 -203Q3141 -167 3179 -81Q3141 -100 3109 -120Q3077 -139 3057 -161Q3037 -183 3037 -208Q3037 -222 3043 -231Q3049 -239 3057 -239ZM3498 -30Q3452 -30 3433 1Q3415 32 3415 75Q3415 124 3433 190Q3451 256 3480 328Q3510 401 3545 470Q3581 540 3616 596Q3652 653 3682 686Q3713 720 3731 720Q3743 720 3751 707Q3760 694 3765 675Q3770 657 3770 642Q3770 615 3756 571Q3743 528 3718 475Q3694 423 3660 368Q3627 314 3587 264Q3547 215 3501 179Q3497 154 3493 129Q3490 104 3490 83Q3490 46 3501 28Q3513 11 3533 11Q3559 11 3585 35Q3612 59 3636 95Q3660 132 3678 171L3699 159Q3657 72 3606 21Q3555 -30 3498 -30ZM3516 232Q3551 268 3582 312Q3613 357 3639 403Q3666 449 3686 492Q3706 536 3717 570Q3728 605 3729 625Q3729 629 3728 630Q3727 632 3727 632Q3719 632 3700 608Q3682 585 3657 545Q3633 505 3607 453Q3581 401 3557 344Q3533 287 3516 232ZM3732 -29Q3690 -29 3669 -4Q3648 22 3648 59Q3648 82 3656 117Q3664 152 3678 190Q3693 229 3712 263Q3731 297 3752 318Q3774 340 3795 340Q3807 340 3815 333Q3823 326 3823 313Q3823 300 3807 273Q3792 247 3771 213Q3750 179 3734 142Q3719 105 3719 71Q3719 38 3731 27Q3743 16 3766 16Q3800 16 3839 50Q3879 84 3922 169L3935 155Q3902 67 3847 19Q3793 -29 3732 -29ZM3851 425Q3833 425 3818 433Q3804 442 3804 461Q3804 485 3829 501Q3855 518 3882 518Q3899 518 3910 510Q3921 502 3921 483Q3921 462 3899 443Q3877 425 3851 425ZM4011 -51Q3962 -51 3932 -31Q3903 -10 3890 21Q3878 52 3878 84Q3878 113 3886 129Q3894 145 3906 153Q3918 161 3928 165Q3939 169 3943 173Q3970 202 3996 237Q4022 272 4041 313L4041 324Q4041 363 4054 379Q4067 395 4084 395Q4095 395 4100 389Q4105 384 4105 377Q4105 372 4102 363Q4100 354 4100 339Q4100 308 4114 269Q4128 231 4142 188Q4156 145 4156 100Q4156 87 4155 76Q4154 66 4151 56Q4184 63 4214 89Q4244 116 4272 169L4283 160Q4264 103 4227 70Q4191 38 4144 31Q4128 -11 4092 -31Q4056 -51 4011 -51ZM4007 -10Q4024 -10 4042 -1Q4060 9 4071 32Q4029 41 3996 64Q3964 88 3946 113Q3930 110 3930 83Q3930 49 3949 19Q3969 -10 4007 -10ZM4078 58Q4080 66 4080 76Q4081 86 4081 94Q4080 140 4069 184Q4058 229 4048 274Q4028 240 4003 204Q3979 169 3958 147Q3973 118 4004 93Q4036 68 4078 58ZM4293 -38Q4272 -38 4262 -5Q4252 29 4252 72Q4252 119 4268 184Q4284 249 4310 321Q4336 394 4368 463Q4401 533 4435 589Q4470 646 4501 680Q4532 714 4555 714Q4575 714 4585 691Q4595 669 4595 646Q4595 618 4582 578Q4570 539 4548 494Q4526 449 4496 405Q4467 361 4433 325Q4399 289 4362 267Q4350 235 4342 203Q4334 172 4330 143Q4327 114 4327 88Q4327 81 4327 75Q4328 69 4329 63Q4336 81 4347 110Q4359 140 4375 173Q4392 206 4414 236Q4437 266 4466 284Q4495 303 4530 303Q4562 303 4580 288Q4599 274 4606 252Q4614 230 4614 207Q4614 176 4603 147Q4593 119 4582 93Q4572 68 4572 45Q4572 27 4580 19Q4588 11 4600 11Q4622 11 4651 33Q4681 55 4710 91Q4739 128 4759 172L4774 157Q4752 107 4721 66Q4691 25 4654 0Q4617 -24 4576 -24Q4539 -24 4520 -5Q4501 15 4501 44Q4501 65 4508 90Q4516 116 4523 142Q4530 169 4530 191Q4530 215 4519 225Q4509 235 4494 235Q4469 235 4449 215Q4429 195 4412 164Q4396 133 4382 98Q4368 64 4354 32Q4341 1 4326 -19Q4311 -38 4293 -38ZM4381 323Q4407 346 4432 378Q4457 411 4478 447Q4500 483 4516 517Q4532 551 4541 578Q4551 605 4552 620Q4552 622 4551 623Q4551 624 4550 624Q4544 624 4524 598Q4504 573 4477 530Q4451 487 4425 433Q4399 379 4381 323Z" fill="#ffffff" style=""></path></g></g></g></svg>